<?xml version="1.0" encoding="UTF-8" standalone="no"?>
<svg
   xmlns:dc="http://purl.org/dc/elements/1.1/"
   xmlns:cc="http://creativecommons.org/ns#"
   xmlns:rdf="http://www.w3.org/1999/02/22-rdf-syntax-ns#"
   xmlns:svg="http://www.w3.org/2000/svg"
   xmlns="http://www.w3.org/2000/svg"
   xmlns:sodipodi="http://sodipodi.sourceforge.net/DTD/sodipodi-0.dtd"
   xmlns:inkscape="http://www.inkscape.org/namespaces/inkscape"
   inkscape:export-ydpi="129.60001"
   inkscape:export-xdpi="129.60001"
   inkscape:export-filename="D:\Projekty\Parkman\app\src\main\res\drawable\cars.png"
   sodipodi:docname="cars.svg"
   inkscape:version="1.0 (4035a4fb49, 2020-05-01)"
   id="svg8"
   version="1.1"
   viewBox="0 0 211.66667 79.375002"
   height="300"
   width="800">
  <defs
     id="defs2" />
  <sodipodi:namedview
     inkscape:window-maximized="1"
     inkscape:window-y="-9"
     inkscape:window-x="-9"
     inkscape:window-height="1001"
     inkscape:window-width="1920"
     inkscape:snap-global="false"
     units="px"
     showgrid="false"
     inkscape:document-rotation="0"
     inkscape:current-layer="layer1"
     inkscape:document-units="mm"
     inkscape:cy="637.7223"
     inkscape:cx="655.65238"
     inkscape:zoom="0.32"
     inkscape:pageshadow="2"
     inkscape:pageopacity="0.0"
     borderopacity="1.0"
     bordercolor="#666666"
     pagecolor="#ffffff"
     id="base">
    <inkscape:grid
       id="grid854"
       type="xygrid" />
  </sodipodi:namedview>
  <metadata
     id="metadata5">
    <rdf:RDF>
      <cc:Work
         rdf:about="">
        <dc:format>image/svg+xml</dc:format>
        <dc:type
           rdf:resource="http://purl.org/dc/dcmitype/StillImage" />
        <dc:title></dc:title>
      </cc:Work>
    </rdf:RDF>
  </metadata>
  <g
     id="layer1"
     inkscape:groupmode="layer"
     inkscape:label="Warstwa 1">
    <g
       transform="translate(-16.252738,-4.6564418)"
       id="g908">
      <g
         id="g846"
         transform="translate(0.21924454,-1.0583333)">
        <circle
           r="5.7641373"
           cy="43.939732"
           cx="143.91444"
           id="path833"
           style="fill:#000000;fill-opacity:0.25;stroke-width:2568.84;stop-color:#000000" />
        <path
           transform="scale(0.26458333)"
           d="m 543.85352,144.28516 a 21.785716,21.785716 0 0 0 -21.71094,21.78711 21.785716,21.785716 0 0 0 21.78515,21.78515 21.785716,21.785716 0 0 0 21.78711,-21.78515 21.785716,21.785716 0 0 0 -21.78711,-21.78711 21.785716,21.785716 0 0 0 -0.0742,0 z m -0.008,8.03711 a 13.750001,13.750001 0 0 1 0.082,0 13.750001,13.750001 0 0 1 13.75,13.75 13.750001,13.750001 0 0 1 -13.75,13.75 13.750001,13.750001 0 0 1 -13.75,-13.75 13.750001,13.750001 0 0 1 13.66797,-13.75 z"
           style="fill:#000000;fill-opacity:0.25;stroke-width:9709;stop-color:#000000"
           id="circle839" />
      </g>
      <g
         id="g852"
         transform="translate(47.984377,-1.0583333)">
        <circle
           style="fill:#000000;fill-opacity:0.25;stroke-width:2568.84;stop-color:#000000"
           id="circle848"
           cx="143.91444"
           cy="43.939732"
           r="5.7641373" />
        <path
           id="path850"
           style="fill:#000000;fill-opacity:0.25;stroke-width:9709;stop-color:#000000"
           d="m 543.85352,144.28516 a 21.785716,21.785716 0 0 0 -21.71094,21.78711 21.785716,21.785716 0 0 0 21.78515,21.78515 21.785716,21.785716 0 0 0 21.78711,-21.78515 21.785716,21.785716 0 0 0 -21.78711,-21.78711 21.785716,21.785716 0 0 0 -0.0742,0 z m -0.008,8.03711 a 13.750001,13.750001 0 0 1 0.082,0 13.750001,13.750001 0 0 1 13.75,13.75 13.750001,13.750001 0 0 1 -13.75,13.75 13.750001,13.750001 0 0 1 -13.75,-13.75 13.750001,13.750001 0 0 1 13.66797,-13.75 z"
           transform="scale(0.26458333)" />
      </g>
      <path
         id="path856"
         style="fill:#000000;fill-opacity:0.25;stroke:none;stroke-width:0.999999px;stroke-linecap:butt;stroke-linejoin:miter;stroke-opacity:1"
         d="M 580,59.375 555,100 495,115 v 50 h 22.24609 l 2.38673,-20 c 0,0 2.19429,-10.93731 24.88876,-10.93731 22.69447,0 26.23624,11.13262 26.23624,11.13262 L 573.4375,165 h 124.29688 l 3.26953,-20 c 0,0 2.14191,-10.94306 24.19142,-10.94306 22.04951,0 24.24217,10.94306 24.24217,10.94306 l 2.84487,20 19.90513,-0.78125 v -60.9375 L 745,59.375 Z m 5.08594,7.519531 h 53.52929 v 36.265629 l -72.86328,-0.27539 z m 61.10937,0.144531 58.59375,0.195313 v 35.984375 h -58.59375 z m 65.71875,0.390626 h 30.61719 l 22.07031,35.593752 h -52.6875 z"
         transform="scale(0.26458333)"
         sodipodi:nodetypes="cccccczcccczccccccccccccccccccccc" />
    </g>
    <g
       id="g924"
       transform="translate(72.029728,-4.6564418)">
      <g
         transform="translate(0.21924454,-1.0583333)"
         id="g914">
        <circle
           style="fill:#000000;fill-opacity:0.25;stroke-width:2568.84;stop-color:#000000"
           id="circle910"
           cx="143.91444"
           cy="43.939732"
           r="5.7641373" />
        <path
           id="path912"
           style="fill:#000000;fill-opacity:0.25;stroke-width:9709;stop-color:#000000"
           d="m 543.85352,144.28516 a 21.785716,21.785716 0 0 0 -21.71094,21.78711 21.785716,21.785716 0 0 0 21.78515,21.78515 21.785716,21.785716 0 0 0 21.78711,-21.78515 21.785716,21.785716 0 0 0 -21.78711,-21.78711 21.785716,21.785716 0 0 0 -0.0742,0 z m -0.008,8.03711 a 13.750001,13.750001 0 0 1 0.082,0 13.750001,13.750001 0 0 1 13.75,13.75 13.750001,13.750001 0 0 1 -13.75,13.75 13.750001,13.750001 0 0 1 -13.75,-13.75 13.750001,13.750001 0 0 1 13.66797,-13.75 z"
           transform="scale(0.26458333)" />
      </g>
      <g
         transform="translate(47.984377,-1.0583333)"
         id="g920">
        <circle
           r="5.7641373"
           cy="43.939732"
           cx="143.91444"
           id="circle916"
           style="fill:#000000;fill-opacity:0.25;stroke-width:2568.84;stop-color:#000000" />
        <path
           transform="scale(0.26458333)"
           d="m 543.85352,144.28516 a 21.785716,21.785716 0 0 0 -21.71094,21.78711 21.785716,21.785716 0 0 0 21.78515,21.78515 21.785716,21.785716 0 0 0 21.78711,-21.78515 21.785716,21.785716 0 0 0 -21.78711,-21.78711 21.785716,21.785716 0 0 0 -0.0742,0 z m -0.008,8.03711 a 13.750001,13.750001 0 0 1 0.082,0 13.750001,13.750001 0 0 1 13.75,13.75 13.750001,13.750001 0 0 1 -13.75,13.75 13.750001,13.750001 0 0 1 -13.75,-13.75 13.750001,13.750001 0 0 1 13.66797,-13.75 z"
           style="fill:#000000;fill-opacity:0.25;stroke-width:9709;stop-color:#000000"
           id="path918" />
      </g>
      <path
         sodipodi:nodetypes="cccccczcccczccccccccccccccccccccc"
         transform="scale(0.26458333)"
         d="M 580,59.375 555,100 495,115 v 50 h 22.24609 l 2.38673,-20 c 0,0 2.19429,-10.93731 24.88876,-10.93731 22.69447,0 26.23624,11.13262 26.23624,11.13262 L 573.4375,165 h 124.29688 l 3.26953,-20 c 0,0 2.14191,-10.94306 24.19142,-10.94306 22.04951,0 24.24217,10.94306 24.24217,10.94306 l 2.84487,20 19.90513,-0.78125 v -60.9375 L 745,59.375 Z m 5.08594,7.519531 h 53.52929 v 36.265629 l -72.86328,-0.27539 z m 61.10937,0.144531 58.59375,0.195313 v 35.984375 h -58.59375 z m 65.71875,0.390626 h 30.61719 l 22.07031,35.593752 h -52.6875 z"
         style="fill:#000000;fill-opacity:0.25;stroke:none;stroke-width:0.999999px;stroke-linecap:butt;stroke-linejoin:miter;stroke-opacity:1"
         id="path922" />
    </g>
    <g
       id="g940"
       transform="translate(-173.87585,-4.6564418)">
      <g
         transform="translate(0.21924454,-1.0583333)"
         id="g930">
        <circle
           style="fill:#000000;fill-opacity:0.25;stroke-width:2568.84;stop-color:#000000"
           id="circle926"
           cx="143.91444"
           cy="43.939732"
           r="5.7641373" />
        <path
           id="path928"
           style="fill:#000000;fill-opacity:0.25;stroke-width:9709;stop-color:#000000"
           d="m 543.85352,144.28516 a 21.785716,21.785716 0 0 0 -21.71094,21.78711 21.785716,21.785716 0 0 0 21.78515,21.78515 21.785716,21.785716 0 0 0 21.78711,-21.78515 21.785716,21.785716 0 0 0 -21.78711,-21.78711 21.785716,21.785716 0 0 0 -0.0742,0 z m -0.008,8.03711 a 13.750001,13.750001 0 0 1 0.082,0 13.750001,13.750001 0 0 1 13.75,13.75 13.750001,13.750001 0 0 1 -13.75,13.75 13.750001,13.750001 0 0 1 -13.75,-13.75 13.750001,13.750001 0 0 1 13.66797,-13.75 z"
           transform="scale(0.26458333)" />
      </g>
      <g
         transform="translate(47.984377,-1.0583333)"
         id="g936">
        <circle
           r="5.7641373"
           cy="43.939732"
           cx="143.91444"
           id="circle932"
           style="fill:#000000;fill-opacity:0.25;stroke-width:2568.84;stop-color:#000000" />
        <path
           transform="scale(0.26458333)"
           d="m 543.85352,144.28516 a 21.785716,21.785716 0 0 0 -21.71094,21.78711 21.785716,21.785716 0 0 0 21.78515,21.78515 21.785716,21.785716 0 0 0 21.78711,-21.78515 21.785716,21.785716 0 0 0 -21.78711,-21.78711 21.785716,21.785716 0 0 0 -0.0742,0 z m -0.008,8.03711 a 13.750001,13.750001 0 0 1 0.082,0 13.750001,13.750001 0 0 1 13.75,13.75 13.750001,13.750001 0 0 1 -13.75,13.75 13.750001,13.750001 0 0 1 -13.75,-13.75 13.750001,13.750001 0 0 1 13.66797,-13.75 z"
           style="fill:#000000;fill-opacity:0.25;stroke-width:9709;stop-color:#000000"
           id="path934" />
      </g>
      <path
         sodipodi:nodetypes="cccccczcccczccccccccccccccccccccc"
         transform="scale(0.26458333)"
         d="M 580,59.375 555,100 495,115 v 50 h 22.24609 l 2.38673,-20 c 0,0 2.19429,-10.93731 24.88876,-10.93731 22.69447,0 26.23624,11.13262 26.23624,11.13262 L 573.4375,165 h 124.29688 l 3.26953,-20 c 0,0 2.14191,-10.94306 24.19142,-10.94306 22.04951,0 24.24217,10.94306 24.24217,10.94306 l 2.84487,20 19.90513,-0.78125 v -60.9375 L 745,59.375 Z m 5.08594,7.519531 h 53.52929 v 36.265629 l -72.86328,-0.27539 z m 61.10937,0.144531 58.59375,0.195313 v 35.984375 h -58.59375 z m 65.71875,0.390626 h 30.61719 l 22.07031,35.593752 h -52.6875 z"
         style="fill:#000000;fill-opacity:0.25;stroke:none;stroke-width:0.999999px;stroke-linecap:butt;stroke-linejoin:miter;stroke-opacity:1"
         id="path938" />
    </g>
    <rect
       ry="1.1693041"
       rx="1.1693041"
       y="51.8671"
       x="-17.695641"
       height="2.3386083"
       width="15.021062"
       id="rect958"
       style="font-variation-settings:normal;opacity:1;vector-effect:none;fill:#000000;fill-opacity:0.25;stroke:none;stroke-width:5974.76;stroke-linecap:butt;stroke-linejoin:miter;stroke-miterlimit:4;stroke-dasharray:none;stroke-dashoffset:0;stroke-opacity:1;stop-color:#000000;stop-opacity:1" />
    <rect
       style="font-variation-settings:normal;opacity:1;vector-effect:none;fill:#000000;fill-opacity:0.25;stroke:none;stroke-width:5974.76;stroke-linecap:butt;stroke-linejoin:miter;stroke-miterlimit:4;stroke-dasharray:none;stroke-dashoffset:0;stroke-opacity:1;stop-color:#000000;stop-opacity:1"
       id="rect968"
       width="15.021062"
       height="2.3386083"
       x="14.054358"
       y="51.8671"
       rx="1.1693041"
       ry="1.1693041" />
    <rect
       ry="1.1693041"
       rx="1.1693041"
       y="51.8671"
       x="45.804359"
       height="2.3386083"
       width="15.021062"
       id="rect970"
       style="font-variation-settings:normal;opacity:1;vector-effect:none;fill:#000000;fill-opacity:0.25;stroke:none;stroke-width:5974.76;stroke-linecap:butt;stroke-linejoin:miter;stroke-miterlimit:4;stroke-dasharray:none;stroke-dashoffset:0;stroke-opacity:1;stop-color:#000000;stop-opacity:1" />
    <rect
       style="font-variation-settings:normal;opacity:1;vector-effect:none;fill:#000000;fill-opacity:0.25;stroke:none;stroke-width:5974.76;stroke-linecap:butt;stroke-linejoin:miter;stroke-miterlimit:4;stroke-dasharray:none;stroke-dashoffset:0;stroke-opacity:1;stop-color:#000000;stop-opacity:1"
       id="rect972"
       width="15.021062"
       height="2.3386083"
       x="77.554359"
       y="51.8671"
       rx="1.1693041"
       ry="1.1693041" />
    <rect
       ry="1.1693041"
       rx="1.1693041"
       y="51.8671"
       x="109.30434"
       height="2.3386083"
       width="15.021062"
       id="rect974"
       style="font-variation-settings:normal;opacity:1;vector-effect:none;fill:#000000;fill-opacity:0.25;stroke:none;stroke-width:5974.76;stroke-linecap:butt;stroke-linejoin:miter;stroke-miterlimit:4;stroke-dasharray:none;stroke-dashoffset:0;stroke-opacity:1;stop-color:#000000;stop-opacity:1" />
    <rect
       style="font-variation-settings:normal;opacity:1;vector-effect:none;fill:#000000;fill-opacity:0.25;stroke:none;stroke-width:5974.76;stroke-linecap:butt;stroke-linejoin:miter;stroke-miterlimit:4;stroke-dasharray:none;stroke-dashoffset:0;stroke-opacity:1;stop-color:#000000;stop-opacity:1"
       id="rect976"
       width="15.021062"
       height="2.3386083"
       x="141.05434"
       y="51.8671"
       rx="1.1693041"
       ry="1.1693041" />
    <rect
       ry="1.1693041"
       rx="1.1693041"
       y="51.8671"
       x="172.80437"
       height="2.3386083"
       width="15.021062"
       id="rect978"
       style="font-variation-settings:normal;opacity:1;vector-effect:none;fill:#000000;fill-opacity:0.25;stroke:none;stroke-width:5974.76;stroke-linecap:butt;stroke-linejoin:miter;stroke-miterlimit:4;stroke-dasharray:none;stroke-dashoffset:0;stroke-opacity:1;stop-color:#000000;stop-opacity:1" />
    <rect
       style="font-variation-settings:normal;opacity:1;vector-effect:none;fill:#000000;fill-opacity:0.25;stroke:none;stroke-width:5974.76;stroke-linecap:butt;stroke-linejoin:miter;stroke-miterlimit:4;stroke-dasharray:none;stroke-dashoffset:0;stroke-opacity:1;stop-color:#000000;stop-opacity:1"
       id="rect980"
       width="15.021062"
       height="2.3386083"
       x="204.5544"
       y="51.8671"
       rx="1.1693041"
       ry="1.1693041" />
  </g>
</svg>
